<svg id="Capa_1" enable-background="new 0 0 512 512" height="30" viewBox="0 0 512 512" width="30" xmlns="http://www.w3.org/2000/svg"><g><g><path d="m112.403 172.115c-4.014 0-7.958-1.612-10.849-4.638l-36.985-38.706c-23.295-24.378-29.591-60.081-16.04-90.958l9.833-22.406c3.516-8.012 10.769-13.642 19.402-15.062 8.631-1.419 17.306 1.592 23.202 8.055l96.904 106.213c3.263 3.576 4.599 8.506 3.588 13.241-1.01 4.734-4.243 8.689-8.681 10.622l-74.39 32.392c-1.929.839-3.965 1.247-5.984 1.247z" fill="#d3d3d8"/></g><g><path d="m399.597 172.115c-2.019 0-4.055-.407-5.984-1.248l-74.39-32.392c-4.438-1.933-7.671-5.888-8.682-10.622-1.01-4.734.326-9.665 3.589-13.241l96.904-106.213c5.896-6.462 14.566-9.474 23.204-8.054 8.632 1.42 15.885 7.051 19.399 15.062l9.834 22.406c13.551 30.876 7.255 66.58-16.041 90.958l-36.985 38.706c-2.89 3.026-6.835 4.638-10.848 4.638z" fill="#bfbfbf"/></g><g><path d="m426.179 512h-340.357c-29.457 0-53.422-23.965-53.422-53.422v-231.318c0-75.879 61.732-137.612 137.612-137.612h171.978c75.879 0 137.611 61.732 137.611 137.612v231.318c0 29.457-23.965 53.422-53.422 53.422z" fill="#ececf1"/></g><g><path d="m341.989 89.649h-85.989v422.351h170.179c29.457 0 53.422-23.965 53.422-53.422v-231.318c0-75.879-61.733-137.611-137.612-137.611z" fill="#d3d3d8"/></g><g><path d="m256 432.117c-53.242 0-96.558-43.315-96.558-96.558v-57.646c0-53.242 43.315-96.557 96.558-96.557s96.558 43.315 96.558 96.557v57.646c0 53.243-43.316 96.558-96.558 96.558z" fill="#fcced3"/></g><g><path d="m256 181.357v250.76c53.242 0 96.558-43.315 96.558-96.558v-57.646c0-53.24-43.316-96.556-96.558-96.556z" fill="#fbc0c8"/></g><g><path d="m126.5 246.316c-8.284 0-15-6.716-15-15v-30c0-8.284 6.716-15 15-15s15 6.716 15 15v30c0 8.284-6.716 15-15 15z" fill="#444"/></g><g><path d="m385.5 246.316c-8.284 0-15-6.716-15-15v-30c0-8.284 6.716-15 15-15s15 6.716 15 15v30c0 8.284-6.716 15-15 15z" fill="#292929"/></g><path d="m332.682 310.251c-5.969-5.742-15.466-5.56-21.209.41l-11.646 12.104c-8.011 8.327-17.938 14.059-28.826 16.801v-41.408l24.798-22.588c6.125-5.578 6.567-15.065.988-21.189-5.58-6.126-15.065-6.567-21.189-.988l-19.598 17.849-19.596-17.85c-6.126-5.58-15.612-5.136-21.19.988-5.579 6.124-5.136 15.611.988 21.189l24.798 22.59v41.407c-10.888-2.742-20.815-8.474-28.826-16.801l-11.646-12.105c-5.744-5.969-15.239-6.152-21.209-.409-5.97 5.744-6.153 15.239-.41 21.21l11.647 12.105c17.28 17.959 40.521 27.851 65.445 27.851 24.922 0 48.165-9.892 65.445-27.852l11.646-12.105c5.743-5.97 5.56-15.466-.41-21.209z" fill="#444"/><g><path d="m332.682 310.251c-5.969-5.742-15.466-5.56-21.209.41l-11.646 12.104c-8.011 8.327-17.938 14.059-28.826 16.801v-41.408l24.798-22.588c6.125-5.578 6.567-15.065.988-21.189-5.58-6.126-15.065-6.567-21.189-.988l-19.598 17.849v100.175c24.922 0 48.165-9.892 65.445-27.852l11.646-12.105c5.744-5.97 5.561-15.466-.409-21.209z" fill="#293939"/></g></g></svg>